<svg xmlns="http://www.w3.org/2000/svg" viewBox="0 0 500 500"><g id="freepik--terms-and-conditions--inject-1"><path d="M413.64,148.23H262.92s-27.15,25-27.15,85.78c0,52.27,20.59,123.14,12.86,152.15-5.83,21.89-34.1,25.65-47.65,26.17H344.44s47.18,2.85,54.91-26.17S386.49,286.28,386.49,234C386.49,173.19,413.64,148.23,413.64,148.23Z" style="fill:#55ACEE"></path><path d="M413.64,148.23H262.92s-27.15,25-27.15,85.78c0,52.27,20.59,123.14,12.86,152.15-5.83,21.89-34.1,25.65-47.65,26.17H344.44s47.18,2.85,54.91-26.17S386.49,286.28,386.49,234C386.49,173.19,413.64,148.23,413.64,148.23Z" style="fill:#fff;opacity:0.7000000000000001"></path><g style="opacity:0.8"><path d="M372.64,212.33H252.1c3.41-26.74,12.6-42.3,17.67-49.1H386C380.3,175.13,374.92,191.34,372.64,212.33Z" style="fill:#55ACEE;opacity:0.8"></path><path d="M371.63,226.51H250.92c.1-2.43.24-4.79.44-7.07H372Q371.75,222.89,371.63,226.51Z" style="fill:#55ACEE;opacity:0.30000000000000004"></path><path d="M288.77,240.68H250.88q-.1-3.39-.11-6.67v-.39h37.9V234C288.67,236.21,288.7,238.44,288.77,240.68Z" style="fill:#55ACEE;opacity:0.30000000000000004"></path><path d="M372.35,254.85H251.73c-.21-2.38-.38-4.74-.51-7.06H371.89Q372.07,251.3,372.35,254.85Z" style="fill:#55ACEE;opacity:0.30000000000000004"></path><path d="M373.68,269H253.16q-.42-3.55-.78-7.07H373C373.17,264.31,373.42,266.67,373.68,269Z" style="fill:#55ACEE;opacity:0.30000000000000004"></path><path d="M375.42,283.2H255c-.33-2.36-.64-4.72-.94-7.06H374.52Q374.94,279.67,375.42,283.2Z" style="fill:#55ACEE;opacity:0.30000000000000004"></path><path d="M377.41,297.37H257q-.52-3.54-1-7.06H376.4C376.73,292.66,377.07,295,377.41,297.37Z" style="fill:#55ACEE;opacity:0.30000000000000004"></path><path d="M379.54,311.55H259.17c-.19-1.29-.39-2.6-.59-3.91l-.48-3.16H378.47C378.83,306.84,379.18,309.2,379.54,311.55Z" style="fill:#55ACEE;opacity:0.30000000000000004"></path><path d="M261.27,325.72q-.5-3.5-1-7.06H380.62c.35,2.36.71,4.71,1.05,7.06Z" style="fill:#55ACEE;opacity:0.30000000000000004"></path><path d="M263.18,339.89c-.28-2.31-.59-4.67-.91-7.06h100.4c.34,2.38.66,4.74,1,7.06Z" style="fill:#55ACEE;opacity:0.30000000000000004"></path><path d="M264.66,354.07q-.29-3.46-.66-7.07H384.52c.27,2.42.52,4.78.73,7.07Z" style="fill:#55ACEE;opacity:0.30000000000000004"></path><path d="M265.35,368.24c0-2.28-.09-4.64-.22-7.06h63.59c.16,2.47.25,4.83.28,7.06Z" style="fill:#55ACEE;opacity:0.30000000000000004"></path></g><path d="M356,404.68c-7.65,1.39-15.4.33-23.09,0a61,61,0,0,0-11.06.29c-3.6.48-7.18,1.42-10.81,1.1a19.62,19.62,0,0,0,3.37-2.29.37.37,0,0,0-.16-.62c-11.29-4-21.57,6.82-32.82,4.3,3.19-2.36,7.68-2.41,10.4-5.51a.38.38,0,0,0-.27-.64C281.5,401.11,272,405,262,405.89c-.48,0-.48.79,0,.75,9.65-.84,18.9-4.53,28.63-4.61-2.91,2.6-7.35,2.69-10.31,5.31a.38.38,0,0,0,.16.63c11.34,3.13,21.66-7.69,32.86-4.35a18.84,18.84,0,0,1-3.79,2.31.38.38,0,0,0,.09.69c3.69.62,7.3-.17,10.94-.75a59.61,59.61,0,0,1,12.31-.48c7.77.37,15.57,1.42,23.29,0C356.69,405.32,356.49,404.59,356,404.68Z" style="fill:#55ACEE"></path></g></svg>