<svg xmlns="http://www.w3.org/2000/svg" viewBox="0 0 500 500"><g id="freepik--background-complete--inject-1"><rect y="382.4" width="500" height="0.25" style="fill:#ebebeb"></rect><path d="M237,337.8H43.92a5.71,5.71,0,0,1-5.71-5.71V60.66A5.71,5.71,0,0,1,43.92,55H237a5.71,5.71,0,0,1,5.71,5.71V332.09A5.71,5.71,0,0,1,237,337.8ZM43.92,55.2a5.47,5.47,0,0,0-5.46,5.46V332.09a5.47,5.47,0,0,0,5.46,5.46H237a5.47,5.47,0,0,0,5.46-5.46V60.66A5.47,5.47,0,0,0,237,55.2Z" style="fill:#ebebeb"></path><path d="M453.31,337.8H260.21a5.72,5.72,0,0,1-5.71-5.71V60.66A5.72,5.72,0,0,1,260.21,55h193.1A5.71,5.71,0,0,1,459,60.66V332.09A5.71,5.71,0,0,1,453.31,337.8ZM260.21,55.2a5.47,5.47,0,0,0-5.46,5.46V332.09a5.47,5.47,0,0,0,5.46,5.46h193.1a5.47,5.47,0,0,0,5.46-5.46V60.66a5.47,5.47,0,0,0-5.46-5.46Z" style="fill:#ebebeb"></path><rect x="51.28" y="391.92" width="26" height="0.25" style="fill:#ebebeb"></rect><rect x="145.15" y="389.21" width="45.03" height="0.25" style="fill:#ebebeb"></rect><rect x="78.28" y="401.21" width="60.79" height="0.25" style="fill:#ebebeb"></rect><rect x="429.49" y="399.53" width="19.23" height="0.25" style="fill:#ebebeb"></rect><rect x="365.29" y="399.53" width="55.29" height="0.25" style="fill:#ebebeb"></rect><rect x="257.05" y="395.31" width="74.47" height="0.25" style="fill:#ebebeb"></rect><polygon points="169.64 295.67 115.06 295.67 111.75 257.44 166.33 257.44 169.64 295.67" style="fill:#e6e6e6"></polygon><polygon points="172.47 295.67 117.89 295.67 114.57 257.44 169.15 257.44 172.47 295.67" style="fill:#f0f0f0"></polygon><polygon points="125.35 287.46 123.53 265.65 161.69 265.65 163.51 287.46 125.35 287.46" style="fill:#fff"></polygon><rect x="196.82" y="295.67" width="7.79" height="86.73" style="fill:#e6e6e6"></rect><rect x="201.65" y="295.67" width="5.41" height="86.73" style="fill:#f0f0f0"></rect><rect x="131.66" y="295.67" width="75.41" height="9.57" transform="translate(338.72 600.91) rotate(180)" style="fill:#f0f0f0"></rect><rect x="126.53" y="305.24" width="7.79" height="77.16" style="fill:#e6e6e6"></rect><rect x="131.37" y="305.24" width="5.41" height="77.16" style="fill:#f0f0f0"></rect><rect x="71.07" y="305.24" width="7.79" height="77.16" style="fill:#e6e6e6"></rect><rect x="75.91" y="305.24" width="5.41" height="77.16" style="fill:#f0f0f0"></rect><rect x="147.51" y="305.24" width="7.79" height="77.16" style="fill:#e6e6e6"></rect><rect x="152.35" y="305.24" width="5.41" height="77.16" style="fill:#f0f0f0"></rect><rect x="71.07" y="295.67" width="60.58" height="9.57" style="fill:#e6e6e6"></rect><rect x="69.01" y="82.42" width="226.23" height="129.78" style="fill:#e6e6e6"></rect><rect x="71.83" y="82.42" width="229.45" height="129.78" style="fill:#f0f0f0"></rect><rect x="69.01" y="212.2" width="226.23" height="11.24" style="fill:#e6e6e6"></rect><rect x="81.9" y="212.2" width="229.45" height="11.24" style="fill:#f0f0f0"></rect><rect x="130.13" y="41.05" width="112.85" height="212.52" transform="translate(333.86 -39.25) rotate(90)" style="fill:#fafafa"></rect><polygon points="95.91 203.73 145.59 90.88 169.05 90.88 119.36 203.73 95.91 203.73" style="fill:#fff"></polygon><path d="M84.22,195.31a.61.61,0,0,1-.61-.61V96.39a.61.61,0,0,1,1.21,0V194.7A.61.61,0,0,1,84.22,195.31Z" style="fill:#f0f0f0"></path><polygon points="124.4 203.73 174.09 90.88 183.23 90.88 133.55 203.73 124.4 203.73" style="fill:#fff"></polygon><rect x="235.85" y="146.77" width="112.85" height="1.08" transform="translate(439.58 -144.97) rotate(90)" style="fill:#e6e6e6"></rect><polygon points="303.28 103.65 77.05 103.65 76.28 94.17 302.5 94.17 303.28 103.65" style="fill:#ebebeb;opacity:0.6000000000000001"></polygon><polygon points="303.28 119.18 77.05 119.18 76.28 109.71 302.5 109.71 303.28 119.18" style="fill:#ebebeb;opacity:0.6000000000000001"></polygon><polygon points="303.28 134.72 77.05 134.72 76.28 125.25 302.5 125.25 303.28 134.72" style="fill:#ebebeb;opacity:0.6000000000000001"></polygon><polygon points="303.28 150.26 77.05 150.26 76.28 140.78 302.5 140.78 303.28 150.26" style="fill:#ebebeb;opacity:0.6000000000000001"></polygon><polygon points="303.28 165.8 77.05 165.8 76.28 156.32 302.5 156.32 303.28 165.8" style="fill:#ebebeb;opacity:0.6000000000000001"></polygon><polygon points="303.28 181.33 77.05 181.33 76.28 171.86 302.5 171.86 303.28 181.33" style="fill:#ebebeb;opacity:0.6000000000000001"></polygon><rect x="365.42" y="82.42" width="60.92" height="60.92" transform="translate(791.76 225.75) rotate(180)" style="fill:#ebebeb"></rect><rect x="362.72" y="82.42" width="2.7" height="60.92" style="fill:#e0e0e0"></rect><rect x="373.67" y="90.67" width="44.41" height="44.41" transform="translate(791.76 225.75) rotate(180)" style="fill:#fff"></rect><rect x="385.37" y="102.37" width="21.02" height="21.02" transform="translate(755.63 -87.24) rotate(135)" style="fill:#f5f5f5"></rect><rect x="344.43" y="162.52" width="60.92" height="60.92" transform="translate(749.78 385.95) rotate(180)" style="fill:#ebebeb"></rect><rect x="341.73" y="162.52" width="2.7" height="60.92" style="fill:#e0e0e0"></rect><rect x="352.68" y="170.77" width="44.41" height="44.41" transform="translate(749.78 385.95) rotate(180)" style="fill:#fff"></rect><rect x="365.42" y="183.51" width="18.94" height="18.94" rx="6.31" transform="translate(749.78 385.95) rotate(180)" style="fill:#f5f5f5"></rect><rect x="292.53" y="253.03" width="15.19" height="125.28" style="fill:#f0f0f0"></rect><rect x="294.64" y="378.31" width="145.86" height="4.09" style="fill:#f0f0f0"></rect><rect x="307.73" y="253.03" width="134.88" height="125.28" transform="translate(750.33 631.34) rotate(180)" style="fill:#fafafa"></rect><path d="M416.2,326.24H334.13a14.61,14.61,0,0,1,0-29.22H416.2a14.61,14.61,0,0,1,0,29.22ZM334.13,298a13.63,13.63,0,0,0,0,27.26H416.2a13.63,13.63,0,0,0,0-27.26Z" style="fill:#f0f0f0"></path><path d="M416.2,362.59H334.13a14.61,14.61,0,0,1,0-29.22H416.2a14.61,14.61,0,1,1,0,29.22Zm-82.07-28.24a13.63,13.63,0,1,0,0,27.25H416.2a13.63,13.63,0,1,0,0-27.25Z" style="fill:#f0f0f0"></path><path d="M387.55,308.48H362.78a3.06,3.06,0,0,1-3-3.05h0a3.06,3.06,0,0,1,3-3.05h24.77a3.06,3.06,0,0,1,3.05,3.05h0A3.06,3.06,0,0,1,387.55,308.48Z" style="fill:#ebebeb"></path><path d="M416.2,289.89H334.13a14.61,14.61,0,1,1,0-29.22H416.2a14.61,14.61,0,1,1,0,29.22Zm-82.07-28.24a13.63,13.63,0,1,0,0,27.26H416.2a13.63,13.63,0,0,0,0-27.26Z" style="fill:#f0f0f0"></path><path d="M387.55,272.13H362.78a3.06,3.06,0,0,1-3-3.05h0a3.05,3.05,0,0,1,3-3h24.77a3.06,3.06,0,0,1,3.05,3h0A3.06,3.06,0,0,1,387.55,272.13Z" style="fill:#ebebeb"></path><path d="M387.55,344.82H362.78a3.05,3.05,0,0,1-3-3h0a3.06,3.06,0,0,1,3-3h24.77a3.06,3.06,0,0,1,3.05,3h0A3.06,3.06,0,0,1,387.55,344.82Z" style="fill:#ebebeb"></path><rect x="307.73" y="246.67" width="137.65" height="6.37" style="fill:#f0f0f0"></rect><rect x="289.56" y="246.67" width="18.17" height="6.37" transform="translate(597.28 499.7) rotate(180)" style="fill:#e6e6e6"></rect></g><g id="freepik--Shadow--inject-1"><ellipse id="freepik--path--inject-1" cx="250" cy="416.24" rx="193.89" ry="11.32" style="fill:#f5f5f5"></ellipse></g></svg>